<svg xmlns="http://www.w3.org/2000/svg" viewBox="0 0 1024 1024"><title>五简 · 五行声核</title><defs><linearGradient id="plate" x2=".9" y2="1"><stop stop-color="#163346"/><stop offset=".48" stop-color="#081925"/><stop offset="1" stop-color="#030B14"/></linearGradient><linearGradient id="ring" x1="0" y1="0" x2="1" y2="1"><stop stop-color="#E0FFF6"/><stop offset=".45" stop-color="#82EBDF"/><stop offset="1" stop-color="#3999C5"/></linearGradient><radialGradient id="aura"><stop stop-color="#62DCCC" stop-opacity=".18"/><stop offset="1" stop-color="#62DCCC" stop-opacity="0"/></radialGradient></defs><rect x="56" y="56" width="912" height="912" rx="206" fill="url(#plate)"/><rect x="59" y="59" width="906" height="906" rx="203" fill="none" stroke="#6DA9BB" stroke-opacity=".26" stroke-width="3"/><circle cx="512" cy="512" r="365" fill="url(#aura)"/><circle cx="512" cy="512" r="326" fill="none" stroke="#79C5D1" stroke-opacity=".13" stroke-width="2"/><g transform="translate(512 512) scale(1.92)" fill="url(#ring)"><path id="blade" d="M0-138C47-139 96-116 121-76L91-49C72-81 41-98 9-94L-16-105Z"/><use href="#blade" transform="rotate(72)"/><use href="#blade" transform="rotate(144)"/><use href="#blade" transform="rotate(216)"/><use href="#blade" transform="rotate(288)"/></g><path d="M512 462L524 500L562 512L524 524L512 562L500 524L462 512L500 500Z" fill="#C9FFF2"/><circle cx="512" cy="512" r="10" fill="#FFF"/></svg>
